<?xml version="1.0" encoding="utf-8"?>
<svg viewBox="0 0 886.3 89" style="enable-background:new 0 0 886.3 89;" xmlns="http://www.w3.org/2000/svg">
  <defs>
    <style type="text/css">
	.st0{fill:#FFFFFF;}
</style>
  </defs>
  <path d="M 82.899 16.366 L 96.885 16.366 L 101.55 32.049 L 106.425 16.366 L 118.078 16.366 L 122.529 32.049 L 127.828 16.366 L 140.969 16.366 L 130.795 49.637 L 117.655 49.637 L 112.357 33.319 L 107.908 49.637 L 94.342 49.637 L 82.899 16.366 Z" fill="white" style=""/>
  <path d="M 176.573 37.983 L 188.865 37.983 C 188.865 37.983 188.865 43.068 194.161 43.068 C 198.402 43.068 198.188 40.526 198.188 40.526 C 198.188 40.526 198.402 37.983 193.737 37.135 C 188.228 36.5 177.208 35.437 177.208 26.326 C 177.208 26.326 176.148 14.881 193.315 14.881 C 205.395 14.881 209.634 20.179 209.634 26.536 L 197.977 26.536 C 197.766 24.628 196.282 22.723 193.737 22.723 C 191.194 22.723 189.711 23.57 189.711 24.841 C 189.711 26.326 190.771 26.961 197.766 28.02 C 206.03 29.717 210.693 31.835 210.693 40.313 C 210.693 48.789 201.791 51.545 193.95 51.545 C 185.898 51.333 176.573 48.789 176.573 37.983 Z" fill="white" style=""/>
  <path d="M 225.315 27.81 L 213.237 27.81 C 213.237 27.81 210.693 14.457 231.038 14.457 C 231.038 14.457 246.297 13.609 247.145 25.476 C 247.991 37.345 246.297 45.401 249.899 49.85 L 236.76 49.85 C 236.76 49.85 235.489 48.367 234.854 46.884 C 234.854 46.884 231.249 50.91 223.832 50.91 C 216.414 50.91 212.176 46.459 212.176 40.949 C 212.176 35.227 215.355 31.2 225.952 29.293 C 230.189 28.445 233.794 28.02 234.006 25.69 C 234.216 23.358 231.038 22.935 230.189 22.935 C 230.189 22.935 225.528 22.51 225.315 27.81 Z M 226.798 37.135 C 223.832 38.405 225.315 40.526 225.315 40.526 C 225.315 40.526 226.798 42.854 230.189 42.009 C 235.064 40.736 234.854 34.167 234.854 34.167 C 234.854 34.167 229.554 35.862 226.798 37.135 Z" fill="white" style=""/>
  <path d="M 303.73 3.649 L 290.378 3.649 L 290.378 12.974 L 303.73 12.974 L 303.73 3.649 Z" fill="white" style=""/>
  <path d="M 303.73 16.366 L 290.378 16.366 L 290.378 49.637 L 303.73 49.637 L 303.73 16.366 Z" fill="white" style=""/>
  <path d="M 264.31 49.637 L 250.959 49.637 L 250.959 3.649 L 264.31 3.649 L 264.31 24.418 L 271.093 16.366 L 286.987 16.366 L 275.333 28.869 L 288.894 49.637 L 273.424 49.637 L 266.007 38.405 L 264.31 40.313 L 264.31 49.637 Z" fill="white" style=""/>
  <path d="M 3.425 3.649 L 17.411 3.649 L 17.411 17.635 L 31.4 3.649 L 48.989 3.649 L 30.976 22.087 L 50.261 49.637 L 32.035 49.637 L 21.016 32.259 L 17.411 36.075 L 17.411 49.637 L 3.425 49.637 L 3.425 3.649 Z" fill="white" style=""/>
  <path d="M 61.707 27.81 L 49.413 27.81 C 49.413 27.81 46.87 14.457 67.216 14.457 C 67.216 14.457 82.474 13.609 83.324 25.476 C 84.172 37.345 82.474 45.401 86.077 49.85 L 72.939 49.85 C 72.939 49.85 71.667 48.367 71.031 46.884 C 71.031 46.884 67.639 50.91 60.011 50.91 C 52.594 50.91 48.354 46.459 48.354 40.949 C 48.354 35.227 51.532 31.2 62.13 29.293 C 66.367 28.445 69.972 28.02 70.182 25.69 C 70.396 23.358 67.216 22.935 66.367 22.935 C 66.581 22.935 61.916 22.51 61.707 27.81 Z M 63.19 37.135 C 60.222 38.405 61.707 40.526 61.707 40.526 C 61.707 40.526 63.19 42.854 66.581 42.009 C 71.455 40.736 71.242 34.167 71.242 34.167 C 71.242 34.167 65.946 35.862 63.19 37.135 Z" fill="white" style=""/>
  <path d="M 152.624 27.81 L 140.33 27.81 C 140.33 27.81 137.789 14.457 158.133 14.457 C 158.133 14.457 173.393 13.609 174.241 25.476 C 175.089 37.345 173.393 45.401 176.998 49.85 L 163.856 49.85 C 163.856 49.85 162.584 48.367 161.948 46.884 C 161.948 46.884 158.558 50.91 150.929 50.91 C 143.512 50.91 139.272 46.459 139.272 40.949 C 139.272 35.227 142.452 31.2 153.048 29.293 C 157.287 28.445 160.89 28.02 161.1 25.69 C 161.313 23.358 158.133 22.935 157.287 22.935 C 157.498 22.935 152.624 22.51 152.624 27.81 Z M 153.896 37.135 C 150.929 38.405 152.413 40.526 152.413 40.526 C 152.413 40.526 153.896 42.854 157.287 42.009 C 162.161 40.736 161.948 34.167 161.948 34.167 C 161.948 34.167 156.863 35.862 153.896 37.135 Z" fill="white" style=""/>
  <path d="M 17.411 66.805 L 20.803 66.805 L 20.803 81.005 L 28.857 81.005 L 28.857 83.971 L 17.411 83.971 L 17.411 66.805 Z" fill="white" style=""/>
  <path d="M 30.552 77.613 C 30.552 74.011 33.095 71.255 36.486 71.255 C 40.512 71.255 42.42 74.222 42.42 78.672 L 33.519 78.672 C 33.73 80.58 34.792 81.64 36.698 81.64 C 37.97 81.64 38.606 81.005 39.029 80.157 L 42.209 80.157 C 41.785 82.275 39.877 84.183 36.698 84.183 C 32.671 84.183 30.552 81.428 30.552 77.613 Z M 33.73 76.34 L 39.242 76.34 C 39.242 74.857 38.181 73.798 36.698 73.798 C 34.792 73.798 33.943 74.857 33.73 76.34 Z" fill="white" style=""/>
  <path d="M 44.329 71.679 L 46.022 71.679 L 46.022 67.863 L 49.203 67.863 L 49.203 71.679 L 51.321 71.679 L 51.321 73.798 L 49.203 73.798 L 49.203 80.366 C 49.203 81.215 49.626 81.64 50.473 81.64 C 50.897 81.64 51.532 81.64 51.532 81.64 L 51.532 83.971 C 51.532 83.971 50.897 83.971 49.413 83.971 C 47.93 83.971 46.022 83.334 46.022 81.005 L 46.022 73.798 L 44.329 73.798 L 44.329 71.679 Z" fill="white" style=""/>
  <path d="M 60.222 71.679 L 61.916 71.679 L 61.916 67.863 L 65.096 67.863 L 65.096 71.679 L 67.216 71.679 L 67.216 73.798 L 65.096 73.798 L 65.096 80.366 C 65.096 81.215 65.521 81.64 66.367 81.64 C 66.791 81.64 67.429 81.64 67.429 81.64 L 67.429 83.971 C 67.429 83.971 66.791 83.971 65.308 83.971 C 63.825 83.971 61.916 83.334 61.916 81.005 L 61.916 73.798 L 60.222 73.798 L 60.222 71.679 Z" fill="white" style=""/>
  <path d="M 73.787 73.163 C 74.846 71.891 75.693 71.255 77.389 71.255 C 79.933 71.255 81.626 73.163 81.626 75.917 L 81.626 83.971 L 78.448 83.971 L 78.448 76.553 C 78.448 75.281 77.599 74.222 76.329 74.222 C 74.846 74.222 73.787 75.281 73.787 76.978 L 73.787 83.971 L 70.607 83.971 L 70.607 67.015 L 73.787 67.015 L 73.787 73.163 Z" fill="white" style=""/>
  <path d="M 84.172 77.613 C 84.172 74.011 86.713 71.255 90.105 71.255 C 94.131 71.255 96.04 74.222 96.04 78.672 L 87.139 78.672 C 87.348 80.58 88.408 81.64 90.317 81.64 C 91.589 81.64 92.224 81.005 92.648 80.157 L 95.826 80.157 C 95.402 82.275 93.494 84.183 90.317 84.183 C 86.5 84.183 84.172 81.428 84.172 77.613 Z M 87.56 76.34 L 93.072 76.34 C 93.072 74.857 92.011 73.798 90.528 73.798 C 88.622 73.798 87.774 74.857 87.56 76.34 Z" fill="white" style=""/>
  <path d="M 116.808 81.64 C 115.75 83.548 114.052 84.183 112.145 84.183 C 109.602 84.183 107.483 83.334 106.211 81.64 C 104.726 80.157 104.091 77.823 104.091 75.281 C 104.091 72.528 105.151 69.982 106.846 68.288 C 108.33 67.015 110.026 66.38 112.357 66.38 C 116.595 66.38 119.138 68.711 119.563 72.103 L 116.172 72.103 C 115.75 70.406 114.476 69.347 112.145 69.347 C 108.967 69.347 107.271 72.103 107.271 75.494 C 107.271 78.883 109.178 81.428 111.934 81.428 C 114.476 81.428 116.385 79.522 116.385 77.613 L 112.357 77.613 L 112.357 74.857 L 119.563 74.857 L 119.563 83.971 L 117.02 83.971 L 116.808 81.64 Z" fill="white" style=""/>
  <path d="M 122.104 77.823 C 122.104 74.222 124.651 71.466 128.463 71.466 C 132.278 71.466 134.821 74.222 134.821 77.823 C 134.821 81.428 132.278 84.183 128.463 84.183 C 124.861 84.183 122.104 81.428 122.104 77.823 Z M 131.643 77.823 C 131.643 75.494 130.583 73.798 128.463 73.798 C 126.556 73.798 125.286 75.494 125.286 77.823 C 125.286 80.157 126.345 81.85 128.463 81.85 C 130.583 81.64 131.643 80.157 131.643 77.823 Z" fill="white" style=""/>
  <path d="M 136.941 77.823 C 136.941 74.222 139.485 71.466 143.299 71.466 C 147.113 71.466 149.656 74.222 149.656 77.823 C 149.656 81.428 147.113 84.183 143.299 84.183 C 139.485 84.183 136.941 81.428 136.941 77.823 Z M 146.478 77.823 C 146.478 75.494 145.419 73.798 143.299 73.798 C 141.39 73.798 140.12 75.494 140.12 77.823 C 140.12 80.157 141.18 81.85 143.299 81.85 C 145.419 81.64 146.478 80.157 146.478 77.823 Z" fill="white" style=""/>
  <path d="M 151.776 77.823 C 151.776 74.011 153.896 71.466 157.073 71.466 C 158.772 71.466 159.83 72.314 160.465 73.374 L 160.465 67.015 L 163.646 67.015 L 163.646 83.971 L 160.465 83.971 L 160.465 82.275 C 159.83 83.548 158.558 84.183 156.863 84.183 C 153.896 84.183 151.776 81.64 151.776 77.823 Z M 160.678 77.823 C 160.678 75.494 159.83 74.011 157.922 74.011 C 156.225 74.011 155.167 75.494 155.167 77.823 C 155.167 80.157 156.015 81.64 157.711 81.64 C 159.616 81.428 160.678 79.945 160.678 77.823 Z" fill="white" style=""/>
  <path d="M 171.274 66.805 L 185.048 66.805 L 185.048 69.771 L 179.964 69.771 L 179.964 83.971 L 176.573 83.971 L 176.573 69.771 L 171.485 69.771 L 171.485 66.805 L 171.274 66.805 Z" fill="white" style=""/>
  <path d="M 187.382 66.805 L 190.559 66.805 L 190.559 69.771 L 187.382 69.771 L 187.382 66.805 Z M 187.382 71.679 L 190.559 71.679 L 190.559 83.971 L 187.382 83.971 L 187.382 71.679 Z" fill="white" style=""/>
  <path d="M 194.374 71.679 L 197.552 71.679 L 197.552 73.374 C 198.188 72.314 199.46 71.466 201.155 71.466 C 202.641 71.466 203.911 72.314 204.546 73.587 C 205.395 72.314 206.667 71.466 208.15 71.466 C 210.693 71.466 212.176 73.163 212.176 75.705 L 212.176 83.971 L 208.997 83.971 L 208.997 76.34 C 208.997 74.857 208.361 74.222 207.091 74.222 C 205.819 74.222 204.971 75.281 204.971 76.978 L 204.971 84.183 L 201.791 84.183 L 201.791 76.553 C 201.791 75.07 201.155 74.433 199.885 74.433 C 198.612 74.433 197.766 75.494 197.766 77.188 L 197.766 84.396 L 194.585 84.396 L 194.585 71.679 L 194.374 71.679 Z" fill="white" style=""/>
  <path d="M 214.93 77.613 C 214.93 74.011 217.476 71.255 220.864 71.255 C 224.893 71.255 226.798 74.222 226.798 78.672 L 217.898 78.672 C 218.111 80.58 219.169 81.64 221.077 81.64 C 222.347 81.64 222.986 81.005 223.409 80.157 L 226.587 80.157 C 226.163 82.275 224.256 84.183 221.077 84.183 C 217.263 84.183 214.93 81.428 214.93 77.613 Z M 218.111 76.34 L 223.621 76.34 C 223.621 74.857 222.561 73.798 221.077 73.798 C 219.169 73.798 218.321 74.857 218.111 76.34 Z" fill="white" style=""/>
  <path d="M 229.13 79.945 L 232.098 79.945 C 232.311 81.428 233.37 82.063 234.854 82.063 C 236.337 82.063 237.182 81.428 237.182 80.58 C 237.182 79.308 235.699 79.308 234.006 78.883 C 231.886 78.462 229.765 77.823 229.765 75.281 C 229.765 72.739 231.886 71.466 234.854 71.466 C 238.03 71.466 239.939 73.163 240.15 75.494 L 237.182 75.494 C 236.972 74.222 236.124 73.798 234.854 73.798 C 233.581 73.798 232.733 74.222 232.733 75.07 C 232.733 76.129 234.429 76.129 236.124 76.553 C 238.244 76.978 240.364 77.613 240.364 80.366 C 240.364 82.911 238.244 84.396 235.277 84.396 C 231.463 84.183 229.343 82.488 229.13 79.945 Z" fill="white" style=""/>
  <path d="M 254.987 77.188 L 252.231 77.188 L 252.231 83.758 L 248.629 83.758 L 248.629 66.805 L 256.046 66.805 C 257.955 66.805 259.438 67.44 260.496 68.498 C 261.556 69.558 261.981 70.62 261.981 72.103 C 261.981 74.433 260.708 76.129 258.59 76.978 L 262.826 83.971 L 258.8 83.971 L 254.987 77.188 Z M 252.231 74.433 L 255.833 74.433 C 257.742 74.433 258.59 73.587 258.59 72.103 C 258.59 70.62 257.53 69.771 255.833 69.771 L 252.231 69.771 L 252.231 74.433 Z" fill="white" style=""/>
  <path d="M 264.31 77.823 C 264.31 74.222 266.856 71.466 270.668 71.466 C 274.484 71.466 277.026 74.222 277.026 77.823 C 277.026 81.428 274.484 84.183 270.668 84.183 C 267.067 84.183 264.31 81.428 264.31 77.823 Z M 273.848 77.823 C 273.848 75.494 272.789 73.798 270.668 73.798 C 268.761 73.798 267.491 75.494 267.491 77.823 C 267.491 80.157 268.55 81.85 270.668 81.85 C 272.789 81.64 273.848 80.157 273.848 77.823 Z" fill="white" style=""/>
  <path d="M 280.207 66.805 L 283.384 66.805 L 283.384 83.758 L 280.207 83.758 L 280.207 66.805 Z" fill="white" style=""/>
  <path d="M 287.2 66.805 L 290.378 66.805 L 290.378 83.758 L 287.2 83.758 L 287.2 66.805 Z" fill="white" style=""/>
</svg>